<?xml version="1.0" standalone="no"?>
<!DOCTYPE svg PUBLIC "-//W3C//DTD SVG 20010904//EN"
 "http://www.w3.org/TR/2001/REC-SVG-20010904/DTD/svg10.dtd">
<svg version="1.0" xmlns="http://www.w3.org/2000/svg"
 width="512.000000pt" height="512.000000pt" viewBox="0 0 512.000000 512.000000"
 preserveAspectRatio="xMidYMid meet">
<metadata>
Created by potrace 1.11, written by Peter Selinger 2001-2013
</metadata>
<g transform="translate(0.000000,512.000000) scale(0.100000,-0.100000)"
fill="#000000" stroke="none">
<path d="M2491 4905 c-40 -25 -74 -45 -76 -45 -1 0 -100 -58 -220 -130 -119
-71 -221 -130 -226 -130 -5 0 -9 -4 -9 -10 0 -5 -4 -10 -9 -10 -5 0 -83 -44
-173 -98 -89 -54 -381 -228 -648 -386 -267 -159 -506 -302 -532 -318 l-48 -30
0 -1204 c0 -767 4 -1204 10 -1204 5 0 51 -25 102 -57 51 -31 102 -61 113 -67
16 -9 459 -274 537 -321 9 -5 29 -17 45 -26 51 -29 647 -385 690 -412 24 -15
44 -27 46 -27 3 0 63 -36 136 -80 72 -44 134 -80 137 -80 3 0 24 -13 47 -28
23 -16 67 -43 98 -60 l55 -31 245 145 c134 81 264 158 289 172 25 14 67 39 95
56 28 17 59 36 70 43 11 6 101 59 200 119 99 59 347 206 550 327 204 121 381
227 395 236 14 9 57 34 95 56 l70 41 3 1201 2 1202 -201 120 c-110 67 -204
121 -210 121 -5 0 -9 4 -9 9 0 5 -6 11 -13 13 -8 2 -228 131 -491 288 -262
157 -491 293 -509 304 -26 15 -254 151 -379 225 -14 9 -50 30 -80 47 -29 17
-69 41 -89 53 l-35 21 -73 -45z"/>
</g>
</svg>
